<svg width="44" height="44" viewBox="0 0 44 44" fill="none" xmlns="http://www.w3.org/2000/svg">
<path d="M10.5959 35.6511H10.5893C10.2272 35.6511 9.9375 35.3482 9.9375 34.9861C9.977 32.3198 11.1028 30.0287 13.1898 28.363C16.0537 26.0785 20.5963 25.1766 24.7572 26.0588C25.1127 26.1378 25.3365 26.4867 25.2641 26.8422C25.1851 27.1977 24.8362 27.4216 24.4806 27.3492C20.6885 26.546 16.5803 27.3492 14.0062 29.3967C12.2352 30.8055 11.2806 32.7477 11.2476 35.0125C11.2476 35.3746 10.9514 35.6642 10.5893 35.6642L10.5959 35.6511ZM21.4588 23.5043C17.0412 23.5043 13.4531 20.0282 13.4531 15.7489C13.4531 11.4696 17.0412 8 21.4588 8C25.8764 8 29.4644 11.4761 29.4644 15.7555C29.4644 20.0348 25.8698 23.5109 21.4588 23.5109V23.5043ZM21.4588 9.31672C17.772 9.31672 14.7699 12.2069 14.7699 15.7555C14.7699 19.304 17.772 22.1942 21.4588 22.1942C25.1456 22.1942 28.1477 19.304 28.1477 15.7555C28.1477 12.2069 25.1456 9.31672 21.4588 9.31672ZM29.9319 34.2817C28.9312 34.2817 28.839 34.2817 28.7205 34.1368C27.6869 33.3139 25.9949 31.4705 25.9949 29.5547C25.9949 28.0865 26.6466 27.1385 27.1931 26.6118C27.9304 25.8942 28.9509 25.4663 29.9384 25.5123C30.8865 25.4663 31.9333 25.8942 32.6706 26.6118C33.2171 27.1451 33.8688 28.0865 33.8688 29.5547C33.8688 31.4705 32.1769 33.3139 31.1432 34.1368C31.0181 34.2817 30.926 34.2817 29.9319 34.2817ZM29.2603 33.2612H30.61C31.716 32.3527 32.855 30.8516 32.855 29.5547C32.855 28.442 32.3744 27.7376 31.9662 27.3426C31.4197 26.8159 30.6561 26.5065 29.9582 26.5328C29.1813 26.5065 28.4505 26.8159 27.9107 27.3426C27.5025 27.7376 27.0219 28.442 27.0219 29.5547C27.0219 30.8516 28.1609 32.3593 29.2669 33.2612H29.2603ZM30.8996 36H28.9641C28.8324 35.9933 28.7083 35.9363 28.6174 35.8407C28.5266 35.7452 28.4759 35.6183 28.4759 35.4865C28.4759 35.3546 28.5266 35.2278 28.6174 35.1322C28.7083 35.0366 28.8324 34.9796 28.9641 34.973H30.8996C31.0313 34.9796 31.1554 35.0366 31.2463 35.1322C31.3372 35.2278 31.3878 35.3546 31.3878 35.4865C31.3878 35.6183 31.3372 35.7452 31.2463 35.8407C31.1554 35.9363 31.0313 35.9933 30.8996 36ZM34.6457 28.4881C34.5237 28.4882 34.4058 28.4443 34.3136 28.3645C34.2213 28.2847 34.1609 28.1744 34.1433 28.0537C34.1257 27.933 34.1522 27.81 34.2178 27.7073C34.2835 27.6045 34.384 27.5288 34.5009 27.494L35.4028 27.2241C35.4668 27.2051 35.5339 27.1988 35.6003 27.2057C35.6667 27.2126 35.731 27.2326 35.7897 27.2644C35.8484 27.2961 35.9003 27.3392 35.9423 27.391C35.9844 27.4428 36.0158 27.5024 36.0348 27.5664C36.0539 27.6304 36.0601 27.6975 36.0532 27.7639C36.0463 27.8303 36.0264 27.8946 35.9946 27.9533C35.9628 28.012 35.9197 28.0639 35.8679 28.1059C35.8161 28.148 35.7565 28.1794 35.6925 28.1984L34.7905 28.4684C34.7445 28.4815 34.6918 28.4881 34.6457 28.4881ZM33.0656 26.0588C32.934 26.0588 32.8023 26.0061 32.7035 25.9074C32.506 25.7099 32.506 25.3873 32.7035 25.1832L33.3685 24.5182C33.566 24.3207 33.8886 24.3207 34.0927 24.5182C34.2968 24.7157 34.2902 25.0383 34.0927 25.2424L33.4277 25.9074C33.3319 26.0038 33.2016 26.0582 33.0656 26.0588ZM26.7981 26.0061C26.6664 26.0061 26.5347 25.9534 26.436 25.8547L25.771 25.1897C25.5735 24.9922 25.5735 24.6696 25.771 24.4656C25.9685 24.2615 26.2911 24.268 26.4952 24.4656L27.1602 25.1305C27.2316 25.2023 27.2802 25.2936 27.2998 25.393C27.3195 25.4923 27.3093 25.5953 27.2706 25.6888C27.2319 25.7824 27.1664 25.8625 27.0823 25.9189C26.9982 25.9754 26.8993 26.0057 26.7981 26.0061Z" fill="#222222"/>
<path d="M29.9337 32.8339C29.6506 32.8339 29.4202 32.6035 29.4202 32.3204V31.1156C29.4269 30.9839 29.4839 30.8598 29.5794 30.7689C29.675 30.6781 29.8018 30.6274 29.9337 30.6274C30.0656 30.6274 30.1924 30.6781 30.288 30.7689C30.3835 30.8598 30.4405 30.9839 30.4472 31.1156V32.3204C30.4472 32.6035 30.2168 32.8339 29.9337 32.8339ZM30.5328 30.3519H29.328C29.1963 30.3452 29.0722 30.2882 28.9814 30.1926C28.8905 30.0971 28.8398 29.9702 28.8398 29.8384C28.8398 29.7065 28.8905 29.5797 28.9814 29.4841C29.0722 29.3885 29.1963 29.3315 29.328 29.3248H30.5328C30.6645 29.3315 30.7886 29.3885 30.8795 29.4841C30.9703 29.5797 31.021 29.7065 31.021 29.8384C31.021 29.9702 30.9703 30.0971 30.8795 30.1926C30.7886 30.2882 30.6645 30.3452 30.5328 30.3519ZM29.9337 24.9138C29.6506 24.9138 29.4202 24.6834 29.4202 24.4003V23.4589C29.4269 23.3272 29.4839 23.2031 29.5794 23.1122C29.675 23.0214 29.8018 22.9707 29.9337 22.9707C30.0656 22.9707 30.1924 23.0214 30.288 23.1122C30.3835 23.2031 30.4405 23.3272 30.4472 23.4589V24.4003C30.4472 24.6834 30.2168 24.9138 29.9337 24.9138Z" fill="#222222"/>
</svg>
